<svg width="124" height="124" viewBox="0 0 124 124" fill="none" xmlns="http://www.w3.org/2000/svg">
<g opacity="0.7">
<path d="M54.36 32.44C54.6828 32.7629 55.1061 32.9245 55.5289 32.9245C55.9518 32.9245 56.375 32.7629 56.6978 32.44L57.8667 31.2711L59.0356 32.44C59.3585 32.7629 59.7817 32.9245 60.2046 32.9245C60.6274 32.9245 61.0506 32.7629 61.3735 32.44C62.0191 31.7944 62.0191 30.7479 61.3735 30.1022L60.2046 28.9333L61.3735 27.7644C62.0191 27.1188 62.0191 26.0722 61.3735 25.4266C60.7278 24.781 59.6813 24.781 59.0356 25.4266L57.8667 26.5955L56.6978 25.4266C56.0522 24.781 55.0056 24.781 54.36 25.4266C53.7144 26.0722 53.7144 27.1188 54.36 27.7644L55.5289 28.9333L54.36 30.1022C53.714 30.7483 53.714 31.7944 54.36 32.44Z" fill="black"/>
<path d="M76.0534 37.2C76.9665 37.2 77.7067 36.4598 77.7067 35.5467C77.7067 34.6336 76.9665 33.8934 76.0534 33.8934C75.1403 33.8934 74.4 34.6336 74.4 35.5467C74.4 36.4598 75.1403 37.2 76.0534 37.2Z" fill="black"/>
<path d="M71.0933 19.0133C72.0065 19.0133 72.7467 18.2731 72.7467 17.36C72.7467 16.4469 72.0065 15.7067 71.0933 15.7067C70.1802 15.7067 69.44 16.4469 69.44 17.36C69.44 18.2731 70.1802 19.0133 71.0933 19.0133Z" fill="black"/>
<path d="M99.2001 42.1599H51.9375L48.7205 35.4867C48.6771 35.3961 48.6254 35.3098 48.5663 35.2292C47.1519 33.2923 44.8583 32.1366 42.4316 32.1366H24.0098C19.8868 32.1366 16.5334 35.4321 16.5334 39.4828V95.6362C16.5334 99.5405 19.5193 102.74 23.3592 103.233C24.0705 106.153 26.7014 108.293 29.7601 108.293H95.8934C99.1513 108.293 101.85 105.92 102.392 102.815C105.349 101.713 107.467 98.9226 107.467 95.6366V50.4266C107.467 45.8688 103.758 42.1599 99.2001 42.1599ZM104.16 95.6366C104.16 98.0575 102.129 100.027 99.632 100.027H41.6475C40.7345 100.027 39.9942 100.767 39.9942 101.68C39.9942 102.593 40.7345 103.333 41.6475 103.333H98.7404C98.1671 104.317 97.1123 104.987 95.8938 104.987H29.7601C28.5564 104.987 27.4822 104.324 26.9035 103.333H33.1089C34.0219 103.333 34.7622 102.593 34.7622 101.68C34.7622 100.767 34.0219 100.027 33.1089 100.027H24.3681C21.8712 100.027 19.8401 98.0575 19.8401 95.6366V39.4828C19.8401 37.2553 21.7104 35.4433 24.0098 35.4433H42.4312C43.7592 35.4433 45.0129 36.0488 45.8123 37.0701L48.2662 42.1599H39.6801C38.767 42.1599 38.0267 42.9002 38.0267 43.8133C38.0267 44.7263 38.767 45.4666 39.6801 45.4666H99.2001C101.935 45.4666 104.16 47.6916 104.16 50.4266V95.6366Z" fill="black"/>
</g>
<circle cx="61" cy="55" r="53" fill="black" fill-opacity="0.06"/>
</svg>
