<svg width="52" height="52" viewBox="0 0 52 52" fill="none" xmlns="http://www.w3.org/2000/svg">
<path d="M27.4444 14.4444C31.4331 14.4444 34.6666 11.2109 34.6666 7.22222C34.6666 3.2335 31.4331 0 27.4444 0C23.4557 0 20.2222 3.2335 20.2222 7.22222C20.2222 11.2109 23.4557 14.4444 27.4444 14.4444Z" fill="#9AD0FF"/>
<path d="M27.4444 51.9991C31.4331 51.9991 34.6666 48.7656 34.6666 44.7769C34.6666 40.7882 31.4331 37.5547 27.4444 37.5547C23.4557 37.5547 20.2222 40.7882 20.2222 44.7769C20.2222 48.7656 23.4557 51.9991 27.4444 51.9991Z" fill="#3995FF"/>
<path d="M7.22222 33.2237C11.2109 33.2237 14.4444 29.9902 14.4444 26.0015C14.4444 22.0128 11.2109 18.7793 7.22222 18.7793C3.2335 18.7793 0 22.0128 0 26.0015C0 29.9902 3.2335 33.2237 7.22222 33.2237Z" fill="#5DB0FF"/>
<path d="M44.7774 33.2237C48.7661 33.2237 51.9996 29.9902 51.9996 26.0015C51.9996 22.0128 48.7661 18.7793 44.7774 18.7793C40.7887 18.7793 37.5552 22.0128 37.5552 26.0015C37.5552 29.9902 40.7887 33.2237 44.7774 33.2237Z" fill="#7DC1FF"/>
</svg>
