<svg width="414" height="373" viewBox="0 0 414 373" fill="none" xmlns="http://www.w3.org/2000/svg">
<path d="M261 227.5L85 409.5L243 339M261 227.5L243 339M261 227.5L330 416M261 227.5L199 60M261 227.5L18 269.5M261 227.5L163.5 181.5M261 227.5L342.5 186M243 339L330 416M330 416L342.5 186M330 416L407 364.5M199 60L163.5 181.5M199 60L342.5 186M199 60L243 25.5M199 60L53 1.5M199 60L44.5 109M163.5 181.5L18 269.5M163.5 181.5L44.5 109M18 269.5L44.5 109M18 269.5L-3 335M18 269.5L71.5 409.5M44.5 109L-22 60M44.5 109L53 1.5M44.5 109L-3 101.5M44.5 109L-16.5 156.5M342.5 186L243 25.5M342.5 186L370.5 88M342.5 186L421 132.5V186H342.5ZM342.5 186L431.5 276.5L407 364.5M342.5 186L407 364.5M243 25.5L370.5 88M53 1.5L-22 60M53 1.5L-16.5 25.5L-22 60M370.5 88L416.5 96V64L370.5 88Z" stroke="black" stroke-opacity="0.2"/>
</svg>
